HIERARCHY
ROOT Hips
{
	OFFSET 0.000000 0.000000 0.000000
	CHANNELS 6 Xposition Yposition Zposition Xrotation Yrotation Zrotation
	JOINT LeftUpLeg_virtual
	{
		OFFSET 0.000000 0.000000 0.000000
		CHANNELS 3 Xrotation Yrotation Zrotation
		JOINT LeftUpLeg
		{
			OFFSET 15.427100 -6.655098 0.678600
			CHANNELS 3 Xrotation Yrotation Zrotation
			JOINT LeftLeg
			{
				OFFSET 4.081073 -39.591068 13.024000
				CHANNELS 3 Xrotation Yrotation Zrotation
				JOINT LeftFoot
				{
					OFFSET -4.081074 -37.707932 -15.979700
					CHANNELS 3 Xrotation Yrotation Zrotation
					JOINT LeftToeBase
					{
						OFFSET 5.346399 -15.068900 20.645000
						CHANNELS 3 Xrotation Yrotation Zrotation
						JOINT LeftToe_End
						{
							OFFSET 2.754700 0.931300 11.300900
							CHANNELS 3 Xrotation Yrotation Zrotation
							End Site
							{
								OFFSET 0 0 0
							}
						}
					}
				}
			}
		}
	}
	JOINT RightUpLeg_virtual
	{
		OFFSET 0.000000 0.000000 0.000000
		CHANNELS 3 Xrotation Yrotation Zrotation
		JOINT RightUpLeg
		{
			OFFSET -15.569500 -6.655098 0.678600
			CHANNELS 3 Xrotation Yrotation Zrotation
			JOINT RightLeg
			{
				OFFSET -4.081825 -39.591045 13.023800
				CHANNELS 3 Xrotation Yrotation Zrotation
				JOINT RightFoot
				{
					OFFSET 4.081824 -37.707954 -15.979600
					CHANNELS 3 Xrotation Yrotation Zrotation
					JOINT RightToeBase
					{
						OFFSET -5.346400 -15.068900 20.645000
						CHANNELS 3 Xrotation Yrotation Zrotation
						JOINT RightToe_End
						{
							OFFSET -2.754700 0.931300 11.300900
							CHANNELS 3 Xrotation Yrotation Zrotation
							End Site
							{
								OFFSET 0 0 0
							}
						}
					}
				}
			}
		}
	}
	JOINT Spine_virtual
	{
		OFFSET 0.000000 0.000000 0.000000
		CHANNELS 3 Xrotation Yrotation Zrotation
		JOINT Spine
		{
			OFFSET -0.279200 12.230698 -2.892100
			CHANNELS 3 Xrotation Yrotation Zrotation
			JOINT Spine1
			{
				OFFSET -0.232667 10.192268 -1.242267
				CHANNELS 3 Xrotation Yrotation Zrotation
				JOINT Spine1_split
				{
					OFFSET -0.232667 10.192268 -1.242267
					CHANNELS 3 Xrotation Yrotation Zrotation
					JOINT Spine2
					{
						OFFSET -0.232667 10.192268 -1.242267
						CHANNELS 3 Xrotation Yrotation Zrotation
						JOINT Neck_virtual
						{
							OFFSET 0.000000 0.000000 0.000000
							CHANNELS 3 Xrotation Yrotation Zrotation
							JOINT Neck
							{
								OFFSET -0.418800 17.814194 8.416900
								CHANNELS 3 Xrotation Yrotation Zrotation
								JOINT Head
								{
									OFFSET 0.000000 7.031097 3.806800
									CHANNELS 3 Xrotation Yrotation Zrotation
									JOINT HeadTop_End
									{
										OFFSET 0.000000 24.646606 12.978600
										CHANNELS 3 Xrotation Yrotation Zrotation
										End Site
										{
											OFFSET 0 0 0
										}
									}
								}
							}
						}
						JOINT LeftShoulder_virtual
						{
							OFFSET 0.000000 0.000000 0.000000
							CHANNELS 3 Xrotation Yrotation Zrotation
							JOINT LeftShoulder
							{
								OFFSET 8.476499 7.247704 -3.868750
								CHANNELS 3 Xrotation Yrotation Zrotation
								JOINT LeftShoulder_split
								{
									OFFSET 8.476499 7.247704 -3.868750
									CHANNELS 3 Xrotation Yrotation Zrotation
									JOINT LeftArm
									{
										OFFSET 9.308998 -2.777710 0.208600
										CHANNELS 3 Xrotation Yrotation Zrotation
										JOINT LeftForeArm
										{
											OFFSET 29.972298 0.000000 0.000000
											CHANNELS 3 Xrotation Yrotation Zrotation
											JOINT LeftHand
											{
												OFFSET 26.026505 0.000000 0.000000
												CHANNELS 3 Xrotation Yrotation Zrotation
												End Site
												{
													OFFSET 0 0 0
												}
											}
										}
									}
								}
							}
						}
						JOINT RightShoulder_virtual
						{
							OFFSET 0.000000 0.000000 0.000000
							CHANNELS 3 Xrotation Yrotation Zrotation
							JOINT RightShoulder
							{
								OFFSET -7.570500 7.247704 -3.868750
								CHANNELS 3 Xrotation Yrotation Zrotation
								JOINT RightShoulder_split
								{
									OFFSET -7.570500 7.247704 -3.868750
									CHANNELS 3 Xrotation Yrotation Zrotation
									JOINT RightArm
									{
										OFFSET -9.308998 -2.777710 0.208500
										CHANNELS 3 Xrotation Yrotation Zrotation
										JOINT RightForeArm
										{
											OFFSET -29.972300 0.000000 0.000000
											CHANNELS 3 Xrotation Yrotation Zrotation
											JOINT RightHand
											{
												OFFSET -26.026505 0.000000 0.000000
												CHANNELS 3 Xrotation Yrotation Zrotation
												End Site
												{
													OFFSET 0 0 0
												}
											}
										}
									}
								}
							}
						}
					}
				}
			}
		}
	}
}
MOTION
Frames: 10
Frame Time: 0.03333333
-1.846115 75.557861 -0.577759 0.000000 0.000000 0.000000 10.805460 67.650954 -12.574419 -14.536654 0.229036 25.264928 49.289749 -9.971638 8.548789 -36.058368 7.211594 -15.020810 -9.492826 0.000018 -0.000001 0.000000 0.000000 0.000000 10.805460 67.650954 -12.574419 -35.427822 8.818726 -19.124395 44.681011 10.145760 -5.805510 -15.450499 0.015813 23.928483 -5.169454 0.000011 0.000001 0.000000 0.000000 0.000000 10.805460 67.650954 -12.574419 1.871796 -2.340843 0.639022 2.147806 -0.574855 -0.033124 0.000000 0.000000 0.000000 0.000000 0.000000 0.000000 2.136796 -0.620506 -0.146677 -4.452906 -10.379972 0.183234 -3.546768 -51.462334 5.883609 0.000000 0.000000 0.000000 2.136796 -0.620506 -0.146677 1.127380 -10.640407 -5.486602 0.000000 0.000000 0.000000 -1.802093 -47.065433 -47.163156 -179.999964 -73.678125 -179.999950 0.000000 0.000000 0.000000 2.136796 -0.620506 -0.146677 0.469307 -2.168342 7.105748 0.000000 0.000000 0.000000 -29.988366 -15.739987 41.708393 -179.999923 70.652850 179.999923 0.000000 0.000000 0.000000 
-0.892380 80.862411 -1.371994 0.000000 0.000000 0.000000 7.992879 63.857180 -9.683267 -11.384339 4.919282 22.829759 43.015302 -9.010195 9.095565 -28.543166 6.575286 -14.987190 -12.947231 0.000012 0.000005 0.000000 0.000000 0.000000 7.992879 63.857180 -9.683267 -32.580265 6.399118 -18.594760 33.994169 9.873774 -6.098174 -7.656558 6.572802 25.668971 -5.002595 0.000005 0.000004 0.000000 0.000000 0.000000 7.992879 63.857180 -9.683267 1.889403 -2.812867 0.578467 2.147876 -0.743418 -0.181092 0.000000 0.000000 0.000000 0.000000 0.000000 0.000000 2.123236 -0.800152 -0.306784 -3.798644 -9.756322 0.643418 -3.007117 -47.953143 6.067485 0.000000 0.000000 0.000000 2.123236 -0.800152 -0.306784 1.197096 -10.412341 -4.302575 0.000000 0.000000 0.000000 -5.193341 -45.854253 -50.234125 -179.999896 -72.243963 -179.999896 0.000000 0.000000 0.000000 2.123236 -0.800152 -0.306784 0.488558 -1.683407 7.375538 0.000000 0.000000 0.000000 -29.457209 -13.864262 41.538212 179.999978 68.998325 -179.999964 0.000000 0.000000 0.000000 
0.596300 88.734604 -2.935009 0.000000 0.000000 0.000000 6.528051 57.727509 -8.230768 -8.667860 9.199782 20.025257 35.263239 -6.108620 8.064231 -13.800425 5.087772 -14.723506 -21.524496 0.000018 0.000008 0.000000 0.000000 0.000000 6.528051 57.727509 -8.230768 -28.902669 3.478216 -16.232361 18.031899 9.971653 -6.315761 7.145185 13.999493 24.108648 -11.707707 0.000004 0.000004 0.000000 0.000000 0.000000 6.528051 57.727509 -8.230768 0.993316 -3.053312 0.436909 1.369297 -0.750836 -0.544705 0.000000 0.000000 0.000000 0.000000 0.000000 0.000000 1.328520 -0.799753 -0.660572 -2.260078 -8.831639 1.629504 -0.070824 -42.200754 6.263266 0.000000 0.000000 0.000000 1.328520 -0.799753 -0.660572 1.264989 -9.251300 -1.937962 0.000000 0.000000 0.000000 -9.747291 -45.080983 -53.432881 -179.999950 -70.543170 -179.999950 0.000000 0.000000 0.000000 1.328520 -0.799753 -0.660572 0.565215 -0.209080 8.822584 0.000000 0.000000 0.000000 -28.956819 -9.525893 37.940523 -179.999991 68.387173 179.999978 0.000000 0.000000 0.000000 
1.525269 93.752968 -3.382866 0.000000 0.000000 0.000000 5.852914 50.477379 -5.939961 -8.173190 9.646017 17.247028 32.788480 -0.680357 6.575532 2.917600 3.439568 -15.071501 -22.123900 0.281809 -5.854699 0.000000 0.000000 0.000000 5.852914 50.477379 -5.939961 -29.906649 1.972667 -14.915525 12.523496 9.813985 -4.384120 20.210219 12.755651 17.403066 -5.338094 -0.205788 2.882985 0.000000 0.000000 0.000000 5.852914 50.477379 -5.939961 0.114971 -3.200782 -0.896367 0.605335 -0.473779 -0.931583 0.000000 0.000000 0.000000 0.000000 0.000000 0.000000 0.553921 -0.512509 -1.019413 -1.188953 -7.795688 2.406635 1.667986 -36.088274 5.848702 0.000000 0.000000 0.000000 0.553921 -0.512509 -1.019413 1.307745 -8.658851 0.291260 0.000000 0.000000 0.000000 -14.937098 -42.074621 -55.476907 -179.999923 -67.700132 -179.999923 0.000000 0.000000 0.000000 0.553921 -0.512509 -1.019413 0.601171 2.797514 9.668298 0.000000 0.000000 0.000000 -29.462366 -5.853212 33.684423 -179.999909 67.689900 179.999896 0.000000 0.000000 0.000000 
2.081247 98.350349 -4.764313 0.000000 0.000000 0.000000 4.821557 43.489085 -5.978760 -9.685735 7.732872 15.501611 31.679589 2.542993 5.320266 20.487292 -0.240575 -10.310705 -30.280243 7.409343 -12.445158 0.000000 0.000000 0.000000 4.821557 43.489085 -5.978760 -29.571458 -1.949381 -13.085486 14.630248 9.629263 -1.956892 16.476312 1.491378 12.917319 2.020163 -0.000005 0.000006 0.000000 0.000000 0.000000 4.821557 43.489085 -5.978760 0.668834 -2.503937 1.404968 0.985248 -0.223876 -0.482493 0.000000 0.000000 0.000000 0.000000 0.000000 0.000000 0.956668 -0.257986 -0.571311 -1.943179 -6.815080 2.080529 1.160353 -31.252944 4.601424 0.000000 0.000000 0.000000 0.956668 -0.257986 -0.571311 1.144504 -7.246873 -0.418777 0.000000 0.000000 0.000000 -17.263573 -39.941249 -52.918725 -179.999964 -66.541342 -179.999978 0.000000 0.000000 0.000000 0.956668 -0.257986 -0.571311 0.608123 4.290612 9.147269 0.000000 0.000000 0.000000 -30.800704 -1.171630 31.921657 -179.999978 67.287663 179.999978 0.000000 0.000000 0.000000 
2.083632 100.142639 -5.724228 0.000000 0.000000 0.000000 2.678450 37.908373 -5.091827 -14.232524 5.787563 14.716609 40.785590 0.701285 3.885839 22.058091 -0.902976 -7.160514 -10.628422 3.017368 -11.790776 0.000000 0.000000 0.000000 2.678450 37.908373 -5.091827 -28.936499 -4.623990 -13.181448 23.966673 6.777540 -0.173535 9.190820 -0.146563 9.499058 3.197371 0.000007 0.000001 0.000000 0.000000 0.000000 2.678450 37.908373 -5.091827 1.965430 -1.598168 2.750855 2.112717 0.216710 -0.015670 0.000000 0.000000 0.000000 0.000000 0.000000 0.000000 2.107107 0.172494 -0.130754 -2.819592 -6.059515 1.438322 0.460375 -28.076121 3.556614 0.000000 0.000000 0.000000 2.107107 0.172494 -0.130754 0.961109 -5.437054 -1.714549 0.000000 0.000000 0.000000 -19.505622 -39.400035 -50.928124 -179.999964 -67.372740 -179.999964 0.000000 0.000000 0.000000 2.107107 0.172494 -0.130754 0.604682 3.830631 9.160627 0.000000 0.000000 0.000000 -31.577706 4.135903 31.608545 179.999978 68.440538 -179.999978 0.000000 0.000000 0.000000 
2.060773 100.971313 -6.421528 0.000000 0.000000 0.000000 0.660159 32.107770 -3.224543 -19.006178 5.467400 14.840608 48.999412 -1.018456 2.460187 18.207857 -0.629961 -7.055042 1.291546 0.000006 -0.000005 0.000000 0.000000 0.000000 0.660159 32.107770 -3.224543 -27.767272 -4.498566 -12.917430 33.195679 8.494711 -0.351697 7.351016 -0.164608 8.608262 1.733282 0.000004 -0.000002 0.000000 0.000000 0.000000 0.660159 32.107770 -3.224543 2.777655 -0.510254 2.316310 2.922564 0.887156 -0.117087 0.000000 0.000000 0.000000 0.000000 0.000000 0.000000 2.923315 0.836408 -0.239899 -1.966378 -5.430188 1.242511 0.517589 -25.364319 3.003489 0.000000 0.000000 0.000000 2.923315 0.836408 -0.239899 0.897473 -4.782566 -1.205534 0.000000 0.000000 0.000000 -21.508354 -37.974383 -52.397854 -179.999991 -68.903720 179.999991 0.000000 0.000000 0.000000 2.923315 0.836408 -0.239899 0.607269 4.073706 9.670784 0.000000 0.000000 0.000000 -31.001651 7.695759 32.288083 179.999991 71.552058 -179.999991 0.000000 0.000000 0.000000 
2.478538 102.231667 -6.785671 0.000000 0.000000 0.000000 0.317566 25.946068 -1.815586 -22.501543 5.924115 16.127846 49.093248 -0.635920 1.249019 15.393920 -0.366780 -8.660035 0.387196 -0.000002 -0.000001 0.000000 0.000000 0.000000 0.317566 25.946068 -1.815586 -25.514568 -3.559168 -13.414382 38.037084 9.425239 -1.227440 7.667780 -0.026319 8.557124 1.564790 -0.000007 0.000001 0.000000 0.000000 0.000000 0.317566 25.946068 -1.815586 2.515804 0.333941 1.617305 2.762111 1.341501 -0.494823 0.000000 0.000000 0.000000 0.000000 0.000000 0.000000 2.757106 1.309567 -0.592090 -0.644865 -4.679318 1.099953 1.172980 -22.036183 2.700012 0.000000 0.000000 0.000000 2.757106 1.309567 -0.592090 0.840823 -4.102897 -0.852993 0.000000 0.000000 0.000000 -20.084590 -35.848152 -53.771979 179.999950 -70.083820 179.999950 0.000000 0.000000 0.000000 2.757106 1.309567 -0.592090 0.608933 5.493231 10.201696 0.000000 0.000000 0.000000 -29.286564 9.570626 34.357542 -179.999978 75.167871 179.999978 0.000000 0.000000 0.000000 
2.987209 102.720917 -6.788723 0.000000 0.000000 0.000000 0.854097 20.558466 -0.900298 -25.219922 5.814663 17.754831 44.408008 -0.164904 1.041068 14.169206 -0.216698 -11.713539 1.111590 -0.000011 0.000003 0.000000 0.000000 0.000000 0.854097 20.558466 -0.900298 -22.721551 -3.773482 -15.911738 39.820652 7.884711 -1.504406 6.188842 -0.180145 8.347161 1.376126 0.000003 0.000006 0.000000 0.000000 0.000000 0.854097 20.558466 -0.900298 1.819765 0.632686 1.098354 2.135735 1.432310 -0.569686 0.000000 0.000000 0.000000 0.000000 0.000000 0.000000 2.127126 1.416132 -0.646065 -0.095400 -3.825665 0.697799 1.531810 -18.386517 2.422325 0.000000 0.000000 0.000000 2.127126 1.416132 -0.646065 0.793627 -3.136941 -2.372856 0.000000 0.000000 0.000000 -16.711395 -33.471209 -53.572753 -179.999923 -70.548327 -179.999896 0.000000 0.000000 0.000000 2.127126 1.416132 -0.646065 0.583005 7.049647 11.152284 0.000000 0.000000 0.000000 -27.715463 10.973536 36.027086 179.999950 77.466612 -179.999937 0.000000 0.000000 0.000000 
3.423070 101.684769 -6.829967 0.000000 0.000000 0.000000 1.226390 15.788800 -0.417506 -27.369473 4.728951 19.017455 38.428376 -1.679460 2.156883 14.359517 -0.348981 -15.864038 0.659208 0.000024 -0.000005 0.000000 0.000000 0.000000 1.226390 15.788800 -0.417506 -20.128448 -5.312553 -18.766609 39.517893 6.526868 -1.192772 5.140003 -0.309927 7.091762 1.832072 0.000001 0.000003 0.000000 0.000000 0.000000 1.226390 15.788800 -0.417506 1.504241 0.765485 0.963169 1.810103 1.427745 -0.351508 0.000000 0.000000 0.000000 0.000000 0.000000 0.000000 1.803088 1.418598 -0.422898 -0.524343 -3.061637 0.407994 1.370335 -14.902590 2.150888 0.000000 0.000000 0.000000 1.803088 1.418598 -0.422898 0.824633 -3.040453 -4.329680 0.000000 0.000000 0.000000 -14.157540 -30.058344 -53.447999 179.999964 -70.093963 179.999950 0.000000 0.000000 0.000000 1.803088 1.418598 -0.422898 0.543345 7.490546 12.339765 0.000000 0.000000 0.000000 -26.974942 12.923030 36.896060 -179.999623 78.187436 179.999623 0.000000 0.000000 0.000000 
